<svg xmlns="http://www.w3.org/2000/svg" viewBox="0 0 174.64 126.83"><defs><style>.cls-1{fill:#4e4e4e;}</style></defs><g id="Layer_2" data-name="Layer 2"><g id="Layer_1-2" data-name="Layer 1"><path class="cls-1" d="M92.77,62c-.93-.3-1.68-.6-2.45-.79a24.64,24.64,0,0,0-5.06-1.1,6.77,6.77,0,0,0-6.78,5.48c-.68,3.54.56,5.79,4.11,7.37.79.36,1.63.61,2.44.92,1.55.57,3.13,1.06,4.61,1.76a4.62,4.62,0,0,1,2.89,5,5,5,0,0,1-3.79,4.47c-4.2,1.28-8.23-.64-10.19-4.84a6.75,6.75,0,0,0-.84-1.13l-.34.23V87c.42-.07.79,0,1-.16,1-.94,2.12-.53,3.28-.4a39.87,39.87,0,0,0,7.06.44c3.22-.22,5.62-2.67,6.36-5.92.82-3.65-.2-6.83-3-8.46a40.76,40.76,0,0,0-4.38-1.9,32.94,32.94,0,0,1-5.07-2.45,3.3,3.3,0,0,1,.3-5.69,6.34,6.34,0,0,1,3.32-.72c2.93.15,4.37,2.15,5.25,4.71a6.81,6.81,0,0,0,.87,1.36l.41-.22Z"/><path class="cls-1" d="M100.58.84a38.16,38.16,0,0,0-3.91,0,1.93,1.93,0,0,0-1.33.93c-.81,1.76-1.47,3.58-2.19,5.38l-3.71,9.39c-.32-.78-.53-1.27-.72-1.76-1.66-4.29-3.3-8.6-5-12.88-.18-.44-.69-1-1.09-1C81.29.76,79.93.84,78.21.84c.41.62.67,1,.88,1.32.33.6.88,1.21.89,1.82q.12,6.63,0,13.26c0,.63-.67,1.25-1.06,1.86-.23.36-.52.7-.94,1.25h5.32c-.29-.49-.4-1-.69-1.12-1.19-.5-1.24-1.44-1.24-2.52,0-4,0-8.06,0-12.1a11.35,11.35,0,0,1,.1-1.16,4.65,4.65,0,0,1,.81,1.46c1.85,4.8,3.69,9.6,5.57,14.38a4.53,4.53,0,0,0,.91,1.12c.36-.37.89-.67,1.07-1.12,2-5,3.93-10,5.89-15l.49-1.17c.27,4.69.27,9.25.27,13.82a2.27,2.27,0,0,1-1.16,2.32c-.28.15-.37.66-.58,1.07h5.83c-.16-.45-.19-.91-.39-1C98.91,18.68,99,17.59,99,16.44c0-3.84,0-7.68,0-11.52,0-1.17-.15-2.36,1.24-3,.19-.09.2-.57.38-1.1"/><path class="cls-1" d="M98.56,47.81a39.15,39.15,0,0,1-3.42,2.63C90.73,53.12,85.05,52,82.5,47.92c-2.69-4.24-2.48-12,.43-16.1a7.83,7.83,0,0,1,7.32-3.38c3.11.2,5,2,6.06,4.87.14.4.62.68,1,1l.32-.27v-5.5c-1.31-.32-2.49-.54-3.62-.89a13.64,13.64,0,0,0-7.19-.39,12.18,12.18,0,0,0-9.64,9.64c-1.27,5.44-.39,10.5,4.13,14.3,5.44,4.58,14.67,3.22,18.13-2.63l-.83-.78"/><path class="cls-1" d="M115.86,72.4c.27.55.47,1,.68,1.38.3.6.86,1.18.89,1.8.12,2,.08,4,0,6A3.54,3.54,0,0,1,114.87,85a2.22,2.22,0,0,1-3.07-2.22c0-1.16,0-2.33,0-3.49v-7h-4.62c.21.54.26,1.18.55,1.32,1.13.54,1.08,1.49,1.08,2.47,0,2.13-.06,4.27.06,6.4.2,3.59,2.83,5.3,6.17,4.07a20,20,0,0,0,2.45-1.29c.06.55.1,1,.15,1.62l4.55-.38c-.25-.54-.31-1.06-.55-1.16-1.17-.5-1.11-1.46-1.09-2.45,0-1.16,0-2.33,0-3.49V72.31H117c-.29,0-.58,0-1.17.09"/><path class="cls-1" d="M167.73,27.47c.16.5.18,1.1.42,1.21,1.42.62,1.22,1.84,1.22,3q0,8.94,0,17.89c0,1.06.14,2.17-1.18,2.69-.23.1-.3.62-.52,1.12H174c-.16-.45-.19-1-.4-1.07-1.36-.51-1.18-1.62-1.18-2.68V27.47Z"/><path class="cls-1" d="M150.47,50.42c-1.61,1.28-3.31,2.07-5.29,1.22s-2.88-2.66-3.1-4.75c-.24-2.31,0-4.52,2-6.08,1.35-1.07,2.71-.66,3.44.88.08.18.09.47.21.53.59.29,1.26.77,1.81.67.34-.06.79-1.06.73-1.58-.19-1.49-1.46-2-2.71-2.26a7,7,0,0,0-8.16,4,8.06,8.06,0,0,0,2.16,9.63c2.49,1.89,6.34,1.57,9-.7.71-.6.81-1-.11-1.6"/><path class="cls-1" d="M99.39,67.89a13,13,0,0,1,0,3.14,11.46,11.46,0,0,1-1.57,2.6l1.63.25c0,.61,0,1.18,0,1.76,0,2.81,0,5.63.12,8.45.1,2.06,1.25,3.16,3.17,3a9.53,9.53,0,0,0,3.1-1.14c.24-.12.22-.77.38-1.37-2.59.79-3.58.47-3.65-1.21-.13-3.14,0-6.29,0-9.57h3.17c0-.55,0-1-.07-1.5h-3.21V67.89Z"/><path class="cls-1" d="M122.51,40.83c0,.57,0,1.1,0,1.63,0,2.67-.05,5.34,0,8,.12,3,2.19,4.27,5,3.1a3.11,3.11,0,0,0,1-.54,4.82,4.82,0,0,0,.62-1.09,3.91,3.91,0,0,0-1.12-.11c-1.5.29-2.34-.07-2.39-1.48-.13-3.18,0-6.37,0-9.71.77,0,1.44,0,2.11,0,1,0,1.16-.42.78-1.39a13.39,13.39,0,0,0-1.55,0c-1.16.15-1.57-.31-1.46-1.46.09-1,0-2,0-3H122.5a13.13,13.13,0,0,1-.06,3.21,9.88,9.88,0,0,1-1.51,2.48l1.58.37"/><path class="cls-1" d="M107.58,53.4l.32-.38c-.3-.33-.62-.66-.9-1s-.78-.77-.82-1.2a16.86,16.86,0,0,1,.81-8.15c.63-1.62.9-1.63,2.37-.79a2.39,2.39,0,0,0,1.86.26,1.74,1.74,0,0,0,.7-1.54,2.62,2.62,0,0,0-1.28-1.53c-1.4-.64-2.9,0-3.93,1.62-.45.69-.81,1.43-1.2,2.15l-.26-.08V39.13l-3.87.21c.26.54.34,1.12.63,1.26,1,.49,1,1.32,1,2.21,0,2.38,0,4.75,0,7.13,0,.94,0,1.83-1.08,2.29-.25.11-.31.67-.51,1.17Z"/><path class="cls-1" d="M138.52,20.34c.5-2.28,1.12-4.53,1.44-6.82a2.81,2.81,0,0,1,2.28-2.46c1.59-.49,2.22,0,1.93,1.7-.33,1.91-.83,3.8-1.11,5.71s.65,2.57,2.41,1.94a10.38,10.38,0,0,0,1.56-.86c0-.13-.05-.26-.07-.39l-1.69-.35c.45-2.12.92-4.15,1.31-6.2.44-2.32-.67-3.45-3-3a20.76,20.76,0,0,0-2.82.89l-.22-1.07-4.11,1.22-.19.38c2.27.39,1.65,1.75,1.36,3-.47,2.08-.9,4.16-1.37,6.32Z"/><path class="cls-1" d="M142.17,72.34c.25.59.31,1.22.61,1.36,1,.5,1,1.31,1,2.21,0,2.43.07,4.86,0,7.28,0,.69-.63,1.34-1,2-.19.4-.35.8-.59,1.35h6.23c-.2-.52-.25-1.12-.5-1.21-1.23-.49-1.06-1.49-1.06-2.45q0-4.08,0-8.15V72.34Z"/><path class="cls-1" d="M112.74,39.33c.15.49.15,1,.36,1.14,1.42.68,1.23,2,1.24,3.14,0,2,0,4.07,0,6.1,0,1,0,1.95-1.08,2.48-.26.13-.33.67-.56,1.19H119c-.25-.51-.34-1.06-.6-1.17-1.11-.46-1.06-1.37-1.06-2.3V39.13l-4.59.2"/><path class="cls-1" d="M130.56,39.26c.12.55.08,1.07.26,1.15,1.61.77,1.29,2.22,1.3,3.54,0,1.94,0,3.88,0,5.82,0,1,0,1.94-1.11,2.45-.25.11-.29.67-.48,1.15h6a2.56,2.56,0,0,0,.08-.51c0-.14,0-.37-.12-.41-1.91-.86-1.33-2.58-1.35-4,0-3,0-6.08,0-9.15Z"/><path class="cls-1" d="M129.88,10.63c1.8,1.47,1.79,1.47,1.28,3.72a41.72,41.72,0,0,0-.9,4.25c-.07.56.34,1.69.57,1.7a18.28,18.28,0,0,0,3.44-.37c.08,0,.16-.41.12-.61s-.3-.34-.4-.31c-2.08.62-1.36-.82-1.19-1.68.53-2.63,1.13-5.25,1.74-8l-4.66,1.33"/><path class="cls-1" d="M143.49,63.33a1.73,1.73,0,0,0,1.69,1.88A1.77,1.77,0,0,0,147,63.38a1.69,1.69,0,0,0-1.78-1.73,1.62,1.62,0,0,0-1.75,1.68"/><path class="cls-1" d="M133.54,32.12a1.75,1.75,0,0,0,1.75-1.78,1.69,1.69,0,0,0-1.84-1.79,1.6,1.6,0,0,0-1.65,1.8,1.73,1.73,0,0,0,1.74,1.77"/><path class="cls-1" d="M117.52,30.27a1.69,1.69,0,0,0-1.78-1.71A1.6,1.6,0,0,0,114,30.28a1.71,1.71,0,0,0,1.81,1.81,1.75,1.75,0,0,0,1.71-1.82"/><path class="cls-1" d="M135.22,3.82c-.23-.2-.64-.83-1.11-.88-1.2-.14-1.64.81-1.52,1.78A1.82,1.82,0,0,0,133.73,6c1.09.1,1.41-.79,1.49-2.21"/><path class="cls-1" d="M63.64,0a2.42,2.42,0,0,1,1.11,2.34q0,61.14,0,122.29a7.39,7.39,0,0,1-.76,2.2H54.61a12.28,12.28,0,0,1-.63-2.75q-.06-18.21,0-36.43V13.32c0-2.45,0-2.46-2.39-2.46H42.08c-2.42,0-2.42,0-2.42,2.4q0,55.53,0,111.06a8.76,8.76,0,0,1-.76,2.5H29.53a10.13,10.13,0,0,1-.54-2.32q0-30,0-60c0-2.71,0-2.71-2.64-3.08-.48-.07-1-.16-1.44-.24C17.6,59.91,11.4,56.69,6.7,50.88A30.55,30.55,0,0,1,0,32.33C-.59,17.38,7.65,4.75,23.12,1.23,25.7.64,28.36.4,31,0Z"/><path class="cls-1" d="M92.77,62v5.55l-.41.22a6.81,6.81,0,0,1-.87-1.36c-.88-2.56-2.32-4.56-5.25-4.71a6.34,6.34,0,0,0-3.32.72,3.3,3.3,0,0,0-.3,5.69,32.94,32.94,0,0,0,5.07,2.45,40.76,40.76,0,0,1,4.38,1.9c2.76,1.63,3.78,4.81,3,8.46-.74,3.25-3.14,5.7-6.36,5.92a39.87,39.87,0,0,1-7.06-.44c-1.16-.13-2.26-.54-3.28.4-.17.15-.54.09-1,.16V79.43l.34-.23a6.75,6.75,0,0,1,.84,1.13c2,4.2,6,6.12,10.19,4.84a5,5,0,0,0,3.79-4.47,4.62,4.62,0,0,0-2.89-5c-1.48-.7-3.06-1.19-4.61-1.76-.81-.31-1.65-.56-2.44-.92C79,71.39,77.8,69.14,78.48,65.6a6.77,6.77,0,0,1,6.78-5.48,24.64,24.64,0,0,1,5.06,1.1c.77.19,1.52.49,2.45.79"/><path class="cls-1" d="M100.58.84c-.18.53-.19,1-.38,1.1-1.39.62-1.24,1.81-1.24,3,0,3.84,0,7.68,0,11.52,0,1.15,0,2.24,1.22,2.86.2.09.23.55.39,1H94.74c.21-.41.3-.92.58-1.07a2.27,2.27,0,0,0,1.16-2.32c0-4.57,0-9.13-.27-13.82l-.49,1.17c-2,5-3.9,10-5.89,15-.18.45-.71.75-1.07,1.12a4.53,4.53,0,0,1-.91-1.12C86,14.51,84.13,9.71,82.28,4.91a4.65,4.65,0,0,0-.81-1.46,11.35,11.35,0,0,0-.1,1.16c0,4,0,8.07,0,12.1,0,1.08.05,2,1.24,2.52.29.12.4.63.69,1.12H78c.42-.55.71-.89.94-1.25.39-.61,1-1.23,1.06-1.86Q80.11,10.61,80,4c0-.61-.56-1.22-.89-1.82-.21-.37-.47-.7-.88-1.32,1.72,0,3.08-.08,4.42.05.4,0,.91.61,1.09,1,1.7,4.28,3.34,8.59,5,12.88.19.49.4,1,.72,1.76l3.71-9.39c.72-1.8,1.38-3.62,2.19-5.38A1.93,1.93,0,0,1,96.67.88a38.16,38.16,0,0,1,3.91,0"/><path class="cls-1" d="M135.15,81.75a3.72,3.72,0,0,1-2.8,3.44,3.15,3.15,0,0,1-3.73-1.56,8.3,8.3,0,0,1,.08-8.32,3.07,3.07,0,0,1,3.75-1.45,3.8,3.8,0,0,1,2.7,3.38c0,.78,0,1.55,0,2.33v2.18m4.26,3.74c-1.4-.64-1.18-1.85-1.19-3V60.64h-4.77c.26.55.35,1.11.62,1.23,1.11.47,1.07,1.39,1.07,2.32,0,2.52,0,5,0,7.58V73.9l-1-.7a6,6,0,0,0-9.5,3.44,12.67,12.67,0,0,0-.11,5.31c.68,3.61,3.44,5.46,7,4.9a16.78,16.78,0,0,0,3.48-1.35c.07.33.17.79.3,1.46l4.51-.35c-.19-.5-.23-1-.46-1.12"/><path class="cls-1" d="M98.56,47.81l.83.78c-3.46,5.85-12.69,7.21-18.13,2.63-4.52-3.8-5.4-8.86-4.13-14.3a12.18,12.18,0,0,1,9.64-9.64,13.64,13.64,0,0,1,7.19.39c1.13.35,2.31.57,3.62.89v5.5l-.32.27c-.33-.34-.81-.62-1-1-1-2.9-3-4.67-6.06-4.87a7.83,7.83,0,0,0-7.32,3.38c-2.91,4.09-3.12,11.86-.43,16.1,2.55,4,8.23,5.2,12.64,2.52a39.15,39.15,0,0,0,3.42-2.63"/><path class="cls-1" d="M107.3,13.32l4.41-9.12,4.18,9.12Zm9.47,7H123c-.28-.48-.45-.83-.67-1.14a22.62,22.62,0,0,1-2-2.8c-1.69-3.38-3.26-6.82-4.89-10.24-1-2-1.92-4-2.92-6l-2.13,1.29.44.2a12.61,12.61,0,0,1-.6,2.7c-1.81,3.86-3.65,7.72-5.62,11.5a26.1,26.1,0,0,1-2.59,3.4,8,8,0,0,0-.56,1.06h5.11c-.23-.45-.3-.86-.53-1-1-.62-.86-1.39-.44-2.26a7.9,7.9,0,0,1,.74-1.58,2.16,2.16,0,0,1,1.3-.8c2.67-.07,5.34,0,8,0,.31,0,.82,0,.91.23a13.67,13.67,0,0,1,1.26,3.08c.1.41-.56,1-.83,1.49a4,4,0,0,0-.23.9"/><path class="cls-1" d="M115.86,72.4c.59-.05.88-.08,1.17-.09h3.51v7.16c0,1.16,0,2.33,0,3.49,0,1-.08,2,1.09,2.45.24.1.3.62.55,1.16l-4.55.38c0-.6-.09-1.07-.15-1.62A20,20,0,0,1,115,86.62c-3.34,1.23-6-.48-6.17-4.07-.12-2.13,0-4.27-.06-6.4,0-1,0-1.93-1.08-2.47-.29-.14-.34-.78-.55-1.32h4.62v7c0,1.16,0,2.33,0,3.49A2.22,2.22,0,0,0,114.87,85a3.54,3.54,0,0,0,2.59-3.47c.05-2,.09-4,0-6,0-.62-.59-1.2-.89-1.8-.21-.41-.41-.83-.68-1.38"/><path class="cls-1" d="M156.6,73.32c1.68-.11,2.75,1.22,2.77,3.61H154.2c-.23-2,.81-3.51,2.4-3.61M162,83.08c-1.7,1.73-3.66,2.8-6.1,1.59-1.61-.8-2.44-3.6-2-6.22h8.62c.31-3.11-1.11-5.41-3.67-6.21a6.21,6.21,0,0,0-7.37,2.9,9.12,9.12,0,0,0-1,6.07c.41,2.75,1.84,4.85,4.63,5.6a6.47,6.47,0,0,0,7.07-2.18c.52-.62.79-1.15-.25-1.55"/><path class="cls-1" d="M167.73,27.47h4.67V49.61c0,1.06-.18,2.17,1.18,2.68.21.08.24.62.4,1.07h-6.31c.22-.5.29-1,.52-1.12,1.32-.52,1.18-1.63,1.18-2.69q0-8.94,0-17.89c0-1.14.2-2.36-1.22-3-.24-.11-.26-.71-.42-1.21"/><path class="cls-1" d="M169.91,71.69A14.92,14.92,0,0,1,173,73.11c.42.32.51,1.3.46,2,0,.29-.88.81-1.19.72A2.1,2.1,0,0,1,171,74.61c-.15-.59.12-1.44-.79-1.34a5.07,5.07,0,0,0-2.53,1c-.26.21.05,1.42.4,2s1,.71,1.56,1,1.43.61,2.11,1c2.55,1.35,3.36,3.07,2.68,5.59a4.88,4.88,0,0,1-5.23,3.3,9.53,9.53,0,0,1-3.17-.91,2.1,2.1,0,0,1-1.16-2.57c.18-.55,1-1.33,1.38-1.26a2.11,2.11,0,0,1,1.43,1.38c.11,1,.05,1.82,1.31,2,1.52.21,3-.37,3.35-1.46a2,2,0,0,0-1.09-2.57c-1.16-.69-2.41-1.24-3.6-1.89-2.41-1.32-3.09-2.6-2.55-4.75.49-2,2.2-3.07,4.83-3.35"/><path class="cls-1" d="M150.47,50.42c.92.57.82,1,.11,1.6-2.68,2.27-6.53,2.59-9,.7a8.06,8.06,0,0,1-2.16-9.63,7,7,0,0,1,8.16-4c1.25.3,2.52.77,2.71,2.26.06.52-.39,1.52-.73,1.58-.55.1-1.22-.38-1.81-.67-.12-.06-.13-.35-.21-.53-.73-1.54-2.09-1.95-3.44-.88-2,1.56-2.24,3.77-2,6.08.22,2.09,1,3.87,3.1,4.75s3.68.06,5.29-1.22"/><path class="cls-1" d="M99.39,67.89h3v4.37h3.21c0,.55,0,.95.07,1.5h-3.17c0,3.28-.09,6.43,0,9.57.07,1.68,1.06,2,3.65,1.21-.16.6-.14,1.25-.38,1.37a9.53,9.53,0,0,1-3.1,1.14c-1.92.2-3.07-.9-3.17-3-.13-2.82-.09-5.64-.12-8.45,0-.58,0-1.15,0-1.76l-1.63-.25A11.46,11.46,0,0,0,99.34,71a13,13,0,0,0,0-3.14"/><path class="cls-1" d="M122.51,40.83l-1.58-.37A9.88,9.88,0,0,0,122.44,38a13.13,13.13,0,0,0,.06-3.21h3.07c0,1,.07,2,0,3-.11,1.15.3,1.61,1.46,1.46a13.39,13.39,0,0,1,1.55,0c.38,1,.22,1.43-.78,1.39-.67,0-1.34,0-2.11,0,0,3.34-.09,6.53,0,9.71.05,1.41.89,1.77,2.39,1.48a3.91,3.91,0,0,1,1.12.11A4.82,4.82,0,0,1,128.6,53a3.11,3.11,0,0,1-1,.54c-2.83,1.17-4.9-.07-5-3.1-.1-2.67,0-5.34,0-8,0-.53,0-1.06,0-1.63"/><path class="cls-1" d="M107.58,53.4h-6.16c.2-.5.26-1.06.51-1.17,1.1-.46,1.09-1.35,1.08-2.29,0-2.38,0-4.75,0-7.13,0-.89,0-1.72-1-2.21-.29-.14-.37-.72-.63-1.26l3.87-.21v3.62l.26.08c.39-.72.75-1.46,1.2-2.15,1-1.57,2.53-2.26,3.93-1.62a2.62,2.62,0,0,1,1.28,1.53,1.74,1.74,0,0,1-.7,1.54,2.39,2.39,0,0,1-1.86-.26c-1.47-.84-1.74-.83-2.37.79a16.86,16.86,0,0,0-.81,8.15c0,.43.51.82.82,1.2s.6.68.9,1l-.32.38"/><path class="cls-1" d="M138.52,20.34h-2.31c.47-2.16.9-4.24,1.37-6.32.29-1.28.91-2.64-1.36-3l.19-.38,4.11-1.22.22,1.07a20.76,20.76,0,0,1,2.82-.89c2.35-.41,3.46.72,3,3-.39,2.05-.86,4.08-1.31,6.2l1.69.35c0,.13,0,.26.07.39a10.38,10.38,0,0,1-1.56.86c-1.76.63-2.69-.08-2.41-1.94s.78-3.8,1.11-5.71c.29-1.67-.34-2.19-1.93-1.7A2.81,2.81,0,0,0,140,13.52c-.32,2.29-.94,4.54-1.44,6.82"/><path class="cls-1" d="M142.17,72.34h4.68v2.41q0,4.06,0,8.15c0,1-.17,2,1.06,2.45.25.09.3.69.5,1.21h-6.23c.24-.55.4-1,.59-1.35.33-.68.93-1.33,1-2,.12-2.42,0-4.85,0-7.28,0-.9,0-1.71-1-2.21-.3-.14-.36-.77-.61-1.36"/><path class="cls-1" d="M112.74,39.33l4.59-.2V49.91c0,.93,0,1.84,1.06,2.3.26.11.35.66.6,1.17h-6.3c.23-.52.3-1.06.56-1.19,1.13-.53,1.07-1.51,1.08-2.48,0-2,0-4.07,0-6.1,0-1.19.18-2.46-1.24-3.14-.21-.1-.21-.65-.36-1.14"/><path class="cls-1" d="M130.56,39.26h4.56c0,3.07,0,6.11,0,9.15,0,1.46-.56,3.18,1.35,4,.08,0,.11.27.12.41a2.56,2.56,0,0,1-.08.51h-6c.19-.48.23-1,.48-1.15,1.13-.51,1.11-1.48,1.11-2.45,0-1.94,0-3.88,0-5.82,0-1.32.31-2.77-1.3-3.54-.18-.08-.14-.6-.26-1.15"/><path class="cls-1" d="M129.88,10.63l4.66-1.33c-.61,2.78-1.21,5.4-1.74,8-.17.86-.89,2.3,1.19,1.68.1,0,.37.18.4.31s0,.59-.12.61a18.28,18.28,0,0,1-3.44.37c-.23,0-.64-1.14-.57-1.7a41.72,41.72,0,0,1,.9-4.25c.51-2.25.52-2.25-1.28-3.72"/><path class="cls-1" d="M143.49,63.33a1.62,1.62,0,0,1,1.75-1.68A1.69,1.69,0,0,1,147,63.38a1.77,1.77,0,0,1-1.84,1.83,1.73,1.73,0,0,1-1.69-1.88"/><path class="cls-1" d="M133.54,32.12a1.73,1.73,0,0,1-1.74-1.77,1.6,1.6,0,0,1,1.65-1.8,1.69,1.69,0,0,1,1.84,1.79,1.75,1.75,0,0,1-1.75,1.78"/><path class="cls-1" d="M117.52,30.27a1.75,1.75,0,0,1-1.71,1.82A1.71,1.71,0,0,1,114,30.28a1.6,1.6,0,0,1,1.74-1.72,1.69,1.69,0,0,1,1.78,1.71"/><path class="cls-1" d="M135.22,3.82c-.08,1.42-.4,2.31-1.49,2.21a1.82,1.82,0,0,1-1.14-1.31c-.12-1,.32-1.92,1.52-1.78.47.05.88.68,1.11.88"/><path class="cls-1" d="M160.24,50.47a2.65,2.65,0,0,1-3.85,1.36,3,3,0,0,1-.26-4.17c1.18-1.43,2.82-1.71,5.1-1.86a28.9,28.9,0,0,1-1,4.67m6.19,1.78c0-.17-.56-.23-.82-.41-.49-.35-1.2-.66-1.34-1.14a12.4,12.4,0,0,1-.28-2.88c-.12-1.69-.12-3.4-.38-5.07a4.05,4.05,0,0,0-3.11-3.65c-2.19-.49-4.41-.51-6.21,1-.45.4-.49,1.38-.53,2.11,0,.21.74.72.94.63a3.2,3.2,0,0,0,1.47-1.15c.57-1,1.21-1.64,2.42-1.46a2.28,2.28,0,0,1,2,2c.13.65.15,1.33.24,2.1a9.2,9.2,0,0,0-1.56.18A23.73,23.73,0,0,0,154.82,46a4.44,4.44,0,0,0-1.94,5.78,4.06,4.06,0,0,0,5.2,2,20.29,20.29,0,0,0,3.3-1.84c1.07,2.23,2.89,2.77,4.68,1.3a1.21,1.21,0,0,0,.37-.92"/></g></g></svg>