<?xml version="1.0" encoding="utf-8"?>
<!-- Generator: Adobe Illustrator 24.3.0, SVG Export Plug-In . SVG Version: 6.00 Build 0)  -->
<svg version="1.1" id="Layer_1" xmlns="http://www.w3.org/2000/svg" xmlns:xlink="http://www.w3.org/1999/xlink" x="0px" y="0px"
	 viewBox="0 0 66 66" style="enable-background:new 0 0 66 66;" xml:space="preserve">
<style type="text/css">
	.st0{clip-path:url(#SVGID_2_);}
	.st1{fill:#F2706D;}
</style>
<g id="Layer_2_1_">
	<g id="Layer_1-2">
		<g>
			<defs>
				<path id="SVGID_1_" d="M62.9,0c0.8,0,1.6,0.3,2.2,0.9C65.7,1.5,66,2.3,66,3.1v16.5c0.1,1.3-0.7,2.4-1.9,2.8
					c-1.1,0.5-2.5,0.3-3.3-0.6l-4.6-4.6L24.8,48.6c-1.2,1.2-3.2,1.2-4.4,0l-3-3c-0.6-0.6-0.9-1.4-0.9-2.2c0-0.8,0.3-1.6,0.9-2.2
					L48.9,9.9l-4.6-4.6c-0.9-0.9-1.2-2.2-0.6-3.4c0.4-1.2,1.6-2,2.8-1.9H62.9z M55.7,41.3c1.1,0,2,0.8,2.1,1.9c0,0,0,0.1,0,0.1v16.5
					c0,3.4-2.8,6.2-6.2,6.2c0,0,0,0,0,0H6.2c-1.6,0-3.2-0.6-4.4-1.8C0.6,63.1,0,61.5,0,59.9V14.5c0-1.6,0.6-3.2,1.8-4.4
					C3,8.9,4.5,8.2,6.2,8.3h20.6c0.6,0,1.1,0.2,1.5,0.6c0.4,0.4,0.6,0.9,0.6,1.5v4.1c0,1.1-0.8,2-1.9,2.1c0,0-0.1,0-0.1,0H8.3v41.3
					h41.3V43.3c0-1.1,0.8-2,1.9-2.1c0,0,0.1,0,0.1,0H55.7z"/>
			</defs>
			<clipPath id="SVGID_2_">
				<use xlink:href="#SVGID_1_"  style="overflow:visible;"/>
			</clipPath>
			<g class="st0">
				<rect x="-27.5" y="-27.5" class="st1" width="121.1" height="121.1"/>
			</g>
		</g>
	</g>
</g>
</svg>
