<?xml version="1.0" encoding="utf-8"?>
<!-- Generator: Adobe Illustrator 24.3.0, SVG Export Plug-In . SVG Version: 6.00 Build 0)  -->
<svg version="1.1" id="Layer_1" xmlns="http://www.w3.org/2000/svg" xmlns:xlink="http://www.w3.org/1999/xlink" x="0px" y="0px"
	 viewBox="0 0 30.4 30.4" style="enable-background:new 0 0 30.4 30.4;" xml:space="preserve">
<style type="text/css">
	.st0{clip-path:url(#SVGID_2_);}
	.st1{clip-path:url(#SVGID_4_);}
	.st2{fill:#6C71FF;}
</style>
<g id="Layer_2_1_">
	<g id="Layer_1-2">
		<g>
			<g>
				<defs>
					<path id="SVGID_1_" d="M21.4,0c2.4,0,4.7,0.9,6.4,2.6s2.7,4,2.6,6.4c0,2.4-0.9,4.7-2.6,6.3l-2.2,2.3c-0.3,0.3-0.7,0.4-1,0.2
						C24.3,17.7,24,17.3,24,17c0-1.1-0.2-2.1-0.6-3.1c-0.1-0.4,0-0.8,0.2-1l0.8-0.8c0.8-0.8,1.3-1.9,1.3-3s-0.4-2.2-1.2-3
						c-0.8-0.8-1.9-1.3-3-1.3s-2.2,0.4-3,1.2l-4,4c-0.8,0.8-1.3,1.9-1.2,3c0,1.1,0.4,2.2,1.2,3c0.2,0.2,0.4,0.4,0.6,0.5
						c0.3,0.1,0.4,0.4,0.4,0.7c0.1,0.7-0.2,1.4-0.7,1.9l-1.3,1.2c-0.3,0.4-0.8,0.4-1.1,0.2c0,0,0,0-0.1,0c-0.4-0.3-0.9-0.7-1.2-1
						c-1.7-1.7-2.6-4-2.6-6.4s0.9-4.7,2.6-6.4l4-4C16.7,0.9,19,0,21.4,0z M19.4,11c1.7,1.7,2.7,4,2.6,6.4c0,2.4-0.9,4.7-2.6,6.4
						l-4,4c-1.7,1.7-4,2.7-6.4,2.6c-2.4,0-4.7-0.9-6.4-2.6s-2.7-4-2.6-6.4C0,19,0.9,16.7,2.6,15l2.2-2.3c0.3-0.3,0.7-0.3,1-0.2
						c0.4,0.1,0.6,0.5,0.6,0.8c0,1.1,0.2,2.1,0.6,3.1c0.1,0.3,0,0.7-0.2,1L6,18.2c-0.8,0.8-1.3,1.9-1.3,3s0.4,2.2,1.2,3
						s1.9,1.3,3,1.3s2.2-0.4,3-1.2l4-4c1.7-1.7,1.7-4.4,0-6.1c-0.2-0.2-0.4-0.4-0.6-0.5c-0.3-0.1-0.4-0.4-0.4-0.7
						c-0.1-0.7,0.2-1.3,0.6-1.8l1.4-1.2c0.3-0.3,0.8-0.4,1.1-0.1l0,0C18.6,10.3,19,10.6,19.4,11L19.4,11z"/>
				</defs>
				<clipPath id="SVGID_2_">
					<use xlink:href="#SVGID_1_"  style="overflow:visible;"/>
				</clipPath>
				<g class="st0">
					<g>
						<g>
							<defs>
								<rect id="SVGID_3_" x="-352.8" y="-721.9" width="3364.4" height="9997.2"/>
							</defs>
							<clipPath id="SVGID_4_">
								<use xlink:href="#SVGID_3_"  style="overflow:visible;"/>
							</clipPath>
							<g class="st1">
								<rect x="-11.7" y="-11.7" class="st2" width="53.7" height="53.7"/>
							</g>
						</g>
					</g>
				</g>
			</g>
		</g>
	</g>
</g>
</svg>
