<svg xmlns="http://www.w3.org/2000/svg" viewBox="0 0 388.06 102.68"><defs><style>.cls-1{fill:#fff;}</style></defs><g id="Layer_2" data-name="Layer 2"><g id="Layer_1-2" data-name="Layer 1"><path class="cls-1" d="M220,49.49c-6.26,0-8.6,5.19-8.79,9.3h17.46C228.4,54.17,225.87,49.49,220,49.49Z"/><path class="cls-1" d="M186.73,36.78H172.37V52.53h14.36c6.76,0,9.23-2.15,9.23-7.91S192.92,36.78,186.73,36.78Z"/><path class="cls-1" d="M283.36,49.68c-6.58-.06-8.73,7-8.73,12.14s1.65,13.48,8.73,13.48,10.44-4.81,10.44-12.84S290.57,49.74,283.36,49.68Z"/><path class="cls-1" d="M132.46,49.49c-6.26,0-8.6,5.19-8.79,9.3h17.46C140.88,54.17,138.35,49.49,132.46,49.49Z"/><path class="cls-1" d="M242.76,70.24c0,4,3,5.06,5.88,5.06,4.74,0,9.11-4.49,9.11-8.86v-3.6C252.56,63,242.76,63.91,242.76,70.24Z"/><path class="cls-1" d="M70.3,70.24c0,4,3,5.06,5.88,5.06,4.74,0,9.11-4.49,9.11-8.86v-3.6C80.1,63,70.3,63.91,70.3,70.24Z"/><path class="cls-1" d="M385.27,25.59a20.36,20.36,0,0,0-7.71-7.7,21.7,21.7,0,0,0-21.29,0,20.27,20.27,0,0,0-7.7,7.7,22.68,22.68,0,0,0-1.21,2.48,20.92,20.92,0,0,0-1.2-2.48,20.34,20.34,0,0,0-7.7-7.7,21.2,21.2,0,0,0-10.65-2.79,22.8,22.8,0,0,0-3.63.3,21.31,21.31,0,0,0-2-4.91,20.27,20.27,0,0,0-7.7-7.7,21.7,21.7,0,0,0-21.29,0,20.2,20.2,0,0,0-7.7,7.7,21,21,0,0,0-2.13,5.27,21.58,21.58,0,0,0-5.27,2.13,20.27,20.27,0,0,0-7.7,7.7,21,21,0,0,0-1.21,2.48,22.68,22.68,0,0,0-1.21-2.48,20.27,20.27,0,0,0-7.7-7.7,21.18,21.18,0,0,0-10.65-2.79,22.77,22.77,0,0,0-3.62.3,21.35,21.35,0,0,0-2-4.91,20.27,20.27,0,0,0-7.7-7.7A21.17,21.17,0,0,0,225.59,0,21.4,21.4,0,0,0,218,1.35,21.44,21.44,0,0,0,210.49,0a21.18,21.18,0,0,0-10.65,2.79c-.47.27-.92.56-1.36.85-.44-.29-.89-.58-1.36-.85A21.17,21.17,0,0,0,186.48,0a21.4,21.4,0,0,0-7.55,1.35A21.44,21.44,0,0,0,171.38,0a21.18,21.18,0,0,0-10.65,2.79,20.34,20.34,0,0,0-7.7,7.7,21.16,21.16,0,0,0-2.65,8.19c-.41-.27-.83-.54-1.27-.79a21.7,21.7,0,0,0-21.29,0c-.47.27-.92.56-1.36.85-.44-.29-.89-.58-1.36-.85a21.7,21.7,0,0,0-21.29,0,20.27,20.27,0,0,0-7.7,7.7,22.68,22.68,0,0,0-1.21,2.48,21,21,0,0,0-1.21-2.48,20.27,20.27,0,0,0-7.7-7.7A21.17,21.17,0,0,0,75.35,15.1a21.4,21.4,0,0,0-7.55,1.35,21.44,21.44,0,0,0-7.55-1.35,22.8,22.8,0,0,0-3.63.3,21.76,21.76,0,0,0-2-4.91,20.34,20.34,0,0,0-7.7-7.7,21.72,21.72,0,0,0-21.3,0,20.27,20.27,0,0,0-7.7,7.7,21.35,21.35,0,0,0-2.13,5.27,21.74,21.74,0,0,0-5.27,2.13,20.34,20.34,0,0,0-7.7,7.7,21.75,21.75,0,0,0-1.44,18.2,21.79,21.79,0,0,0,0,15.1A21.44,21.44,0,0,0,0,66.44,21.11,21.11,0,0,0,2.79,77.08a20.29,20.29,0,0,0,7.7,7.71,21.74,21.74,0,0,0,5.27,2.13,21.35,21.35,0,0,0,2.13,5.27,20.27,20.27,0,0,0,7.7,7.7,21.72,21.72,0,0,0,21.3,0c.46-.27.91-.56,1.35-.85.44.29.89.58,1.36.85a21.7,21.7,0,0,0,21.29,0,20.59,20.59,0,0,0,4.46-3.41,20.29,20.29,0,0,0,4.45,3.41,21.18,21.18,0,0,0,10.65,2.79,22.46,22.46,0,0,0,4.45-.45,22.56,22.56,0,0,0,4.46.45A21.17,21.17,0,0,0,110,99.89a20.27,20.27,0,0,0,7.7-7.7,21.83,21.83,0,0,0,1.21-2.48,21.83,21.83,0,0,0,1.21,2.48,20.2,20.2,0,0,0,7.7,7.7,21.17,21.17,0,0,0,10.64,2.79,21.4,21.4,0,0,0,7.55-1.35,21.44,21.44,0,0,0,7.55,1.35,21.2,21.2,0,0,0,8.91-1.92A21.68,21.68,0,0,0,182,99.89a20.53,20.53,0,0,0,4.45-3.41,20.29,20.29,0,0,0,4.45,3.41,21.18,21.18,0,0,0,10.65,2.79,22.46,22.46,0,0,0,4.45-.45,22.56,22.56,0,0,0,4.46.45,21.44,21.44,0,0,0,7.55-1.35,21.4,21.4,0,0,0,7.55,1.35,22.46,22.46,0,0,0,4.45-.45,22.56,22.56,0,0,0,4.46.45,21.17,21.17,0,0,0,10.64-2.79,20.29,20.29,0,0,0,4.45-3.41,20.59,20.59,0,0,0,4.46,3.41,21.7,21.7,0,0,0,21.29,0c.47-.27.92-.56,1.36-.85.44.29.89.58,1.36.85a21.17,21.17,0,0,0,10.64,2.79,21.4,21.4,0,0,0,7.55-1.35,21.44,21.44,0,0,0,7.55,1.35,21.18,21.18,0,0,0,10.65-2.79c.47-.27.92-.56,1.36-.85.44.29.89.58,1.36.85a21.14,21.14,0,0,0,10.64,2.79,21.4,21.4,0,0,0,7.55-1.35,21.4,21.4,0,0,0,7.55,1.35,22.46,22.46,0,0,0,4.45-.45,22.64,22.64,0,0,0,4.46.45,21.17,21.17,0,0,0,10.64-2.79,20.36,20.36,0,0,0,7.71-7.7A21.18,21.18,0,0,0,373,81.54,21.44,21.44,0,0,0,371.61,74a21.79,21.79,0,0,0,0-15.1c.26-.71.5-1.44.69-2.17a21.67,21.67,0,0,0,5.26-2.13,20.36,20.36,0,0,0,7.71-7.7,21.72,21.72,0,0,0,0-21.3ZM41.46,79.85c-18,0-21.82-14-21.82-24.67S23,30.71,41.46,30.71c11.89,0,17.14,5,19.23,14.8H54.24c-1.2-8-6.9-9.87-12.78-9.87-10.81,0-15.37,7.91-15.37,19.54s4.56,19.74,15.37,19.74c9.49,0,12.9-4.87,13.28-13.1h6.58C60.18,70.74,57.46,79.85,41.46,79.85Zm54.39-.44s-.57.44-3.54.44c-5.63,0-6.64-4.93-6.64-7.84,0,2.34-4.87,7.84-11.89,7.84-6.2,0-9.17-4.55-9.17-9.61,0-10.69,15.49-10.5,20.68-10.82V56.13c.12-4.93-3.73-6.45-7-6.45-4.68,0-7.08,2.78-7.08,6.64H65c0-4.36,2.85-11,13.35-11C85.48,45.32,91,48.86,91,56.13V71.37c0,2.72,1.64,3,2.59,3a14.17,14.17,0,0,0,2.28-.13Zm20.36-27.64c-7.52,0-11.76,4.93-11.76,10.43V79.09H98.76v-33h5.69v8.42c0-1.52,4.11-9.17,11.76-9.17Zm16.44,23.71c6.46,0,8.1-4.36,8.29-7h5.76c-.38,5.89-5.19,11.39-14,11.39-9.29,0-15.05-7.78-15.05-17.27s5.57-17.26,14.86-17.26c9.81,0,14.74,8.47,14.93,17.45H123.61C123.61,68.53,125.07,75.48,132.65,75.48Zm56-17.64,12.53,21.25h-6.9L182.68,57.84H172.37V79.09h-5.69V31.46h20.24c9.48,0,14.92,4.81,14.92,13.16S197,57.84,188.62,57.84Zm22.52,4.93c0,5.76,1.45,12.71,9,12.71,6.45,0,8.1-4.36,8.29-7h5.75c-.38,5.89-5.18,11.39-14,11.39-9.3,0-15.05-7.78-15.05-17.27S210.69,45.32,220,45.32c9.8,0,14.74,8.47,14.93,17.45Zm57.17,16.64s-.57.44-3.54.44c-5.63,0-6.64-4.93-6.64-7.84,0,2.34-4.87,7.84-11.89,7.84-6.2,0-9.17-4.55-9.17-9.61,0-10.69,15.49-10.5,20.68-10.82V56.13c.12-4.93-3.73-6.45-7-6.45-4.68,0-7.08,2.78-7.08,6.64h-6.26c0-4.36,2.84-11,13.34-11,7.15,0,12.65,3.54,12.65,10.81V71.37c0,2.72,1.64,3,2.59,3a14.17,14.17,0,0,0,2.28-.13Zm30.8-.32h-5.69v-6c0,.57-2.79,6.71-10.06,6.71-10.25,0-15-9.11-15-18s5.25-16.5,15-16.5c7.59,0,10.06,5.82,10.06,5.82V30.52h5.69Zm20.42-3.61c6.46,0,8.1-4.36,8.29-7h5.76c-.38,5.89-5.19,11.39-14.05,11.39-9.29,0-15-7.78-15-17.27s5.57-17.26,14.86-17.26c9.81,0,14.74,8.47,14.93,17.45H310.49C310.49,68.53,311.94,75.48,319.53,75.48Zm37.19-23.71C349.19,51.77,345,56.7,345,62.2V79.09h-5.7v-33H345v8.42c0-1.52,4.11-9.17,11.76-9.17Z"/><path class="cls-1" d="M319.34,49.49c-6.26,0-8.6,5.19-8.79,9.3H328C327.76,54.17,325.23,49.49,319.34,49.49Z"/></g></g></svg>